<svg xmlns="http://www.w3.org/2000/svg" xmlns:xlink="http://www.w3.org/1999/xlink" id="Capa_1" x="0px" y="0px" viewBox="0 0 512 512" style="enable-background:new 0 0 512 512;" xml:space="preserve"><g>	<g>		<path d="M276,140c-5.52,0-10,4.48-10,10s4.48,10,10,10c5.52,0,10-4.48,10-10S281.52,140,276,140z"></path>	</g></g><g>	<g>		<path d="M276,200c-5.52,0-10,4.48-10,10s4.48,10,10,10c5.52,0,10-4.48,10-10S281.52,200,276,200z"></path>	</g></g><g>	<g>		<path d="M276,260c-5.52,0-10,4.48-10,10c0,5.52,4.48,10,10,10c5.52,0,10-4.48,10-10C286,264.48,281.52,260,276,260z"></path>	</g></g><g>	<g>		<path d="M482,80h-50V60h30c5.523,0,10-4.478,10-10V30c0-16.542-13.458-30-30-30h-40c-16.542,0-30,13.458-30,30v20    c0,5.522,4.477,10,10,10h30v20H266V60h30c5.523,0,10-4.478,10-10V30c0-16.542-13.458-30-30-30h-40c-16.542,0-30,13.458-30,30v20    c0,5.522,4.477,10,10,10h30v20H100V60h30c5.523,0,10-4.478,10-10V30c0-16.542-13.458-30-30-30H70C53.458,0,40,13.458,40,30v20    c0,5.522,4.477,10,10,10h30v20H30C13.458,80,0,93.458,0,110v200c0,16.542,13.458,30,30,30h30v20H30c-5.523,0-10,4.478-10,10    c0,5.522,4.477,10,10,10h176v112h-90c-5.523,0-10,4.478-10,10c0,5.522,4.477,10,10,10h280c5.523,0,10-4.478,10-10    c0-5.522-4.477-10-10-10h-90V380h176c5.523,0,10-4.478,10-10c0-5.522-4.477-10-10-10h-30v-20h30c16.542,0,30-13.458,30-30V110    C512,93.458,498.542,80,482,80z M392,40V30c0-5.514,4.486-10,10-10h40c5.514,0,10,4.486,10,10v10H392z M226,40V30    c0-5.514,4.486-10,10-10h40c5.514,0,10,4.486,10,10v10H226z M60,40V30c0-5.514,4.486-10,10-10h40c5.514,0,10,4.486,10,10v10H60z     M286,492h-60V380h60V492z M432,360H80v-20h352V360z M492,310c0,5.514-4.486,10-10,10H30c-5.514,0-10-4.486-10-10V110    c0-5.514,4.486-10,10-10h452c5.514,0,10,4.486,10,10V310z"></path>	</g></g><g>	<g>		<path d="M442,140H316c-5.523,0-10,4.478-10,10c0,5.522,4.477,10,10,10h126c5.523,0,10-4.478,10-10    C452,144.478,447.523,140,442,140z"></path>	</g></g><g>	<g>		<path d="M442,200H316c-5.523,0-10,4.478-10,10c0,5.522,4.477,10,10,10h126c5.523,0,10-4.478,10-10    C452,204.478,447.523,200,442,200z"></path>	</g></g><g>	<g>		<path d="M442,260H316c-5.523,0-10,4.478-10,10c0,5.522,4.477,10,10,10h126c5.523,0,10-4.478,10-10    C452,264.478,447.523,260,442,260z"></path>	</g></g><g>	<g>		<path d="M216,140H70c-5.523,0-10,4.478-10,10v120c0,5.522,4.477,10,10,10h146c5.523,0,10-4.478,10-10V150    C226,144.478,221.523,140,216,140z M206,260H80V160h126V260z"></path>	</g></g><g></g><g></g><g></g><g></g><g></g><g></g><g></g><g></g><g></g><g></g><g></g><g></g><g></g><g></g><g></g></svg>