<?xml version="1.0" encoding="UTF-8"?>
<svg xmlns="http://www.w3.org/2000/svg" xmlns:xlink="http://www.w3.org/1999/xlink" id="Layer_1" version="1.1" viewBox="0 0 500 325.2">
  <defs>
    <style>
      .st0 {
        fill: none;
      }

      .st1 {
        font-size: 21.2px;
      }

      .st1, .st2, .st3, .st4 {
        isolation: isolate;
      }

      .st1, .st3 {
        fill: #1b1826;
        font-family: Arvo-Bold, Arvo;
        font-weight: 700;
      }

      .st5 {
        fill: #fff;
      }

      .st2 {
        display: none;
      }

      .st3 {
        font-size: 38.6px;
        letter-spacing: .4em;
      }

      .st6 {
        clip-path: url(#clippath);
      }

      .st4 {
        font-family: ArchivoBlack-Regular, 'Archivo Black';
        font-size: 205.5px;
      }

      .st7 {
        fill: #ff1d25;
      }
    </style>
    <clipPath id="clippath">
      <path class="st0" d="M10.3,18.5v250.4h266.5V18.5H10.3ZM274.7,121.9h-49.4c3.2-26.9,12.7-48.5,28.5-64.9,14.5,16,21.9,37.5,21.9,63.9l-1,1Z"></path>
    </clipPath>
  </defs>
  <g class="st2">
    <text class="st3" transform="translate(-790.8 413.9)">
      <tspan x="0" y="0">OZUNA PRINTING</tspan>
    </text>
  </g>
  <g class="st2">
    <text class="st1" transform="translate(-669.9 471.3)">
      <tspan x="0" y="0">WWW.OZUNAPRINTING.COM</tspan>
    </text>
  </g>
  <g>
    <g>
      <path class="st5" d="M47.1,295.4c-.3.3-.8.6-1.4.7.3.2.5.5.7.8s.2.6.2.9c0,.8-.3,1.5-1,1.9-.6.4-1.4.6-2.4.6h-1.1c-.6,0-.9.1-.9.4s0,.3.2.3.4.1.7.1h2.7c.9,0,1.6.2,2,.7s.7,1.1.7,1.9-.2,1.1-.5,1.5-.7.7-1.2.9-1.1.3-1.7.3h-4.4c-.4,0-.7,0-1-.3-.3-.2-.5-.4-.7-.7-.2-.3-.3-.6-.3-1s0-.7.4-1.1c.2-.3.5-.6.9-.7-.2-.2-.4-.4-.6-.6,0-.2-.2-.5-.2-.8s0-.7.4-1.1.7-.5,1.1-.6c-.4-.3-.7-.5-.9-.9s-.3-.7-.3-1c0-.9.4-1.6,1.1-2s1.7-.6,3-.6h1.3c.5-.3.8-.6,1-.9,0-.3.2-.4.2-.5h2.5c0,.6-.2,1.1-.5,1.4v.4ZM40.8,303.6c0,.1-.2.3-.2.5s0,.4.2.6c.2.1.3.2.6.2h2.3c.2,0,.4,0,.6-.2.2-.1.2-.3.2-.5s0-.4-.2-.5-.3-.2-.6-.2h-2.3c-.2,0-.4,0-.6.2h0ZM41.8,297.1c-.2.2-.3.4-.3.7s0,.6.3.7c.2.2.5.2.8.2s.6,0,.9-.2c.2-.2.3-.4.3-.7s0-.6-.3-.7c-.2-.2-.5-.2-.9-.2s-.6,0-.8.3h0Z"></path>
      <path class="st5" d="M54.1,295.3h.3v2.5h-1c-.6,0-1.1.2-1.3.5-.3.3-.4.8-.4,1.4v3.5h-3v-7.9h2.5l.2,1.2c.2-.5.5-.8.9-1s.8-.4,1.3-.4h.6v.2Z"></path>
      <path class="st5" d="M62.2,295.9c.8.4,1.1,1.1,1.1,2v3.1c0,.2,0,.3,0,.4,0,.1.2.2.4.2h.5v1.7h-.2c-.1,0-.3,0-.5.1h-.8c-.6,0-1.1,0-1.4-.3-.4-.2-.6-.4-.8-.7-.4.3-.8.5-1.3.7s-1,.3-1.7.3c-1.9,0-2.8-.7-2.8-2.2s.2-1.4.6-1.8c.4-.4,1-.7,1.8-.8.8-.2,1.8-.2,3.1-.2v-.4c0-.3,0-.5-.3-.7s-.5-.2-.8-.2-.6,0-.8.2c-.2.1-.3.3-.3.5h-3v-.2c0-.8.4-1.3,1.1-1.8.7-.4,1.7-.7,3.1-.7s2.2.2,3,.6v.2ZM58.4,300.2c-.4.2-.6.4-.6.7,0,.5.3.8,1,.8s.7-.1,1-.3c.3-.2.4-.5.4-.8v-.7c-.9,0-1.5,0-1.9.3h0Z"></path>
      <path class="st5" d="M72.9,296.3c.6.7.9,1.7.9,3.1s-.3,2.4-.9,3.1-1.4,1-2.5,1-1.7-.3-2.2-.9v3.7h-3v-10.9h2.4l.3,1.1c.6-.9,1.4-1.3,2.5-1.3s1.9.4,2.5,1.1h0ZM68.5,297.9c-.2.3-.3.7-.3,1.2v.5c0,.5,0,.9.3,1.2.2.3.6.5,1,.5.9,0,1.3-.5,1.3-1.6v-.8c0-1-.4-1.5-1.3-1.5s-.8.2-1,.5h0Z"></path>
      <path class="st5" d="M79,295.5c.4-.2.9-.3,1.4-.3.9,0,1.6.3,2.1.8s.7,1.2.7,2.2v5.1h-3v-4.8c0-.3,0-.6-.3-.8-.2-.2-.4-.3-.7-.3s-.7.1-.9.4-.3.5-.3.9v4.7h-3v-10.9h3v3.8c.3-.3.7-.6,1.1-.7h0Z"></path>
      <path class="st5" d="M84.7,294.5v-2h3v2h-3ZM84.7,303.4v-7.9h3v7.9h-3Z"></path>
      <path class="st5" d="M96.6,296.1c.8.6,1.2,1.4,1.2,2.6h-2.9c0-.9-.5-1.4-1.5-1.4s-1.5.6-1.5,1.7v.9c0,1.1.5,1.7,1.5,1.7s1.5-.5,1.5-1.4h2.8c0,1.2-.4,2-1.2,2.6-.8.6-1.9.8-3.2.8s-2.5-.4-3.3-1.1-1.2-1.7-1.2-3.1.4-2.4,1.2-3.1c.8-.7,1.9-1.1,3.3-1.1s2.4.3,3.2.8h0Z"></path>
      <path class="st5" d="M109.6,303.4l-.3-1.1c-.6.9-1.4,1.3-2.5,1.3s-1.9-.4-2.5-1.1-.9-1.7-.9-3.1.3-2.4.9-3.1,1.4-1,2.5-1,1.7.3,2.2.9v-3.7h3v10.9h-2.4,0ZM106.4,299v.8c0,1,.4,1.5,1.3,1.5s.8-.2,1-.5.3-.7.3-1.2v-.5c0-.5,0-.9-.3-1.2-.2-.3-.6-.5-1-.5-.9,0-1.3.5-1.3,1.6h0Z"></path>
      <path class="st5" d="M121,296.3c.8.7,1.2,1.7,1.2,3.1v.5h-6c0,.6,0,1,.4,1.3s.7.4,1.2.4.9-.1,1.1-.3c.2-.2.4-.5.4-.8h2.9c0,1-.4,1.7-1.1,2.3-.7.5-1.8.8-3.2.8s-2.6-.3-3.4-1-1.2-1.7-1.2-3.1.4-2.4,1.2-3.1c.8-.7,1.9-1.1,3.3-1.1s2.6.3,3.3,1h-.1ZM116.2,298.5h2.9c0-.4,0-.7-.4-1-.2-.2-.6-.4-1-.4-.9,0-1.5.4-1.6,1.3h0Z"></path>
      <path class="st5" d="M129.8,295.9c.7.4,1.1,1.1,1.1,1.9h-2.8c0-.3,0-.5-.4-.6-.2-.1-.4-.2-.7-.2-.7,0-1.1.2-1.1.5s0,.3.4.4c.3,0,.7.2,1.2.3.7.1,1.3.2,1.8.4.5.1.9.4,1.2.7.4.3.5.8.5,1.5,0,1-.4,1.7-1.1,2.2s-1.7.6-3,.6-1.4,0-2-.3c-.6-.2-1.1-.5-1.5-.9s-.6-.9-.6-1.6h2.8c0,.4.2.6.4.8.3.1.6.2.9.2.8,0,1.2-.2,1.2-.6s0-.3-.4-.4c-.3,0-.7-.2-1.3-.3-.7-.1-1.3-.3-1.8-.4s-.9-.4-1.2-.7c-.3-.3-.5-.8-.5-1.4,0-1,.4-1.7,1.1-2.1s1.7-.6,2.9-.6,2,.2,2.7.6h.2Z"></path>
      <path class="st5" d="M132.3,294.5v-2h3v2h-3ZM132.3,303.4v-7.9h3v7.9h-3Z"></path>
      <path class="st5" d="M145.4,295.4c-.3.3-.8.6-1.4.7.3.2.5.5.7.8s.2.6.2.9c0,.8-.3,1.5-1,1.9-.6.4-1.4.6-2.4.6h-1.1c-.6,0-.9.1-.9.4s0,.3.2.3.4.1.7.1h2.7c.9,0,1.6.2,2,.7s.7,1.1.7,1.9-.2,1.1-.5,1.5-.7.7-1.2.9-1.1.3-1.7.3h-4.4c-.4,0-.7,0-1-.3-.3-.2-.5-.4-.7-.7-.2-.3-.3-.6-.3-1s.1-.7.4-1.1c.2-.3.5-.6.9-.7-.2-.2-.4-.4-.6-.6-.1-.2-.2-.5-.2-.8s.1-.7.4-1.1.7-.5,1.1-.6c-.4-.3-.7-.5-.9-.9s-.3-.7-.3-1c0-.9.4-1.6,1.1-2s1.7-.6,3-.6h1.3c.5-.3.8-.6,1-.9.1-.3.2-.4.2-.5h2.5c0,.6-.2,1.1-.5,1.4v.4ZM139.1,303.6c-.1.1-.2.3-.2.5s0,.4.2.6c.2.1.3.2.6.2h2.3c.2,0,.4,0,.6-.2.2-.1.2-.3.2-.5s0-.4-.2-.5-.3-.2-.6-.2h-2.3c-.2,0-.4,0-.6.2h0ZM140,297.1c-.2.2-.3.4-.3.7s0,.6.3.7c.2.2.5.2.8.2s.6,0,.9-.2c.2-.2.3-.4.3-.7s-.1-.6-.3-.7c-.2-.2-.5-.2-.9-.2s-.6,0-.8.3h0Z"></path>
      <path class="st5" d="M154.2,296c.5.5.7,1.2.7,2.2v5.1h-3v-4.8c0-.3,0-.6-.3-.8-.2-.2-.4-.3-.7-.3s-.7.1-.9.4-.3.5-.3.9v4.7h-3v-7.9h2.5l.2,1.2c.3-.4.7-.8,1.2-1s1-.4,1.6-.4c.9,0,1.6.3,2.1.8h-.1Z"></path>
      <path class="st5" d="M161.3,306.6v-14.1h1.9v14.1h-1.9Z"></path>
      <path class="st5" d="M177.2,303.4l-1.2-4.4h0l-1.2,4.4h-2.9l-2.9-7.9h3.2l1.2,4.7h.1l1.2-4.7h3l1.2,4.7h.1l1.2-4.7h2.9l-2.9,7.9h-3Z"></path>
      <path class="st5" d="M190.9,296.3c.8.7,1.2,1.7,1.2,3.1v.5h-6c0,.6.1,1,.4,1.3s.7.4,1.2.4.9-.1,1.1-.3c.2-.2.4-.5.4-.8h2.9c0,1-.4,1.7-1.1,2.3-.7.5-1.8.8-3.2.8s-2.6-.3-3.4-1-1.2-1.7-1.2-3.1.4-2.4,1.2-3.1,1.9-1.1,3.3-1.1,2.6.3,3.3,1h0ZM186.1,298.5h2.9c0-.4-.1-.7-.4-1-.2-.2-.6-.4-1-.4-.9,0-1.5.4-1.6,1.3h.1Z"></path>
      <path class="st5" d="M198.3,295.3c1.1,0,1.9.3,2.5,1s.9,1.7.9,3.1-.3,2.4-.9,3.1-1.4,1.1-2.5,1.1-1.9-.4-2.5-1.3l-.3,1.1h-2.4v-10.9h3v3.7c.6-.6,1.3-.9,2.2-.9h0ZM196.3,297.9c-.2.3-.3.7-.3,1.2v.5c0,.5.1.9.3,1.2.2.3.6.5,1,.5.9,0,1.3-.5,1.3-1.5v-.8c0-1-.4-1.6-1.3-1.6s-.8.2-1,.5h0Z"></path>
      <path class="st5" d="M213.3,303.4l-.3-1.1c-.6.9-1.4,1.3-2.5,1.3s-1.9-.4-2.5-1.1-.9-1.7-.9-3.1.3-2.4.9-3.1c.6-.7,1.4-1,2.5-1s1.7.3,2.2.9v-3.7h3v10.9h-2.4ZM210.1,299v.8c0,1,.4,1.5,1.3,1.5s.8-.2,1-.5.3-.7.3-1.2v-.5c0-.5-.1-.9-.3-1.2-.2-.3-.6-.5-1-.5-.9,0-1.3.5-1.3,1.6h0Z"></path>
      <path class="st5" d="M224.7,296.3c.8.7,1.2,1.7,1.2,3.1v.5h-6c0,.6.1,1,.4,1.3s.7.4,1.2.4.9-.1,1.1-.3c.2-.2.4-.5.4-.8h2.9c0,1-.4,1.7-1.1,2.3-.7.5-1.8.8-3.2.8s-2.6-.3-3.4-1-1.2-1.7-1.2-3.1.4-2.4,1.2-3.1,1.9-1.1,3.3-1.1,2.6.3,3.3,1h0ZM219.9,298.5h2.9c0-.4-.1-.7-.4-1-.2-.2-.6-.4-1-.4-.9,0-1.5.4-1.6,1.3h.1Z"></path>
      <path class="st5" d="M233.4,295.9c.7.4,1.1,1.1,1.1,1.9h-2.8c0-.3-.1-.5-.4-.6-.2-.1-.4-.2-.7-.2-.7,0-1.1.2-1.1.5s.1.3.4.4c.3,0,.7.2,1.2.3.7.1,1.3.2,1.8.4.5.1.9.4,1.2.7.4.3.5.8.5,1.5,0,1-.4,1.7-1.1,2.2s-1.7.6-3,.6-1.4,0-2-.3c-.6-.2-1.1-.5-1.5-.9s-.6-.9-.6-1.6h2.8c0,.4.2.6.4.8.3.1.6.2.9.2.8,0,1.2-.2,1.2-.6s-.1-.3-.4-.4c-.3,0-.7-.2-1.3-.3-.7-.1-1.3-.3-1.8-.4s-.9-.4-1.2-.7c-.3-.3-.5-.8-.5-1.4,0-1,.4-1.7,1.1-2.1s1.7-.6,2.9-.6,2,.2,2.7.6h.2Z"></path>
      <path class="st5" d="M236,294.5v-2h3v2h-3ZM236,303.4v-7.9h3v7.9h-3Z"></path>
      <path class="st5" d="M249,295.4c-.3.3-.8.6-1.4.7.3.2.5.5.7.8s.2.6.2.9c0,.8-.3,1.5-1,1.9-.6.4-1.4.6-2.4.6h-1.1c-.6,0-.9.1-.9.4s0,.3.2.3.4.1.7.1h2.7c.9,0,1.6.2,2,.7s.7,1.1.7,1.9-.2,1.1-.5,1.5-.7.7-1.2.9-1.1.3-1.7.3h-4.4c-.4,0-.7,0-1-.3-.3-.2-.5-.4-.7-.7-.2-.3-.3-.6-.3-1s.1-.7.4-1.1c.2-.3.5-.6.9-.7-.2-.2-.4-.4-.6-.6-.1-.2-.2-.5-.2-.8s.1-.7.4-1.1.7-.5,1.1-.6c-.4-.3-.7-.5-.9-.9s-.3-.7-.3-1c0-.9.4-1.6,1.1-2s1.7-.6,3-.6h1.3c.5-.3.8-.6,1-.9.1-.3.2-.4.2-.5h2.5c0,.6-.2,1.1-.5,1.4v.4ZM242.8,303.6c-.1.1-.2.3-.2.5s0,.4.2.6c.2.1.3.2.6.2h2.3c.2,0,.4,0,.6-.2.2-.1.2-.3.2-.5s0-.4-.2-.5-.3-.2-.6-.2h-2.3c-.2,0-.4,0-.6.2h0ZM243.7,297.1c-.2.2-.3.4-.3.7s0,.6.3.7c.2.2.5.2.8.2s.6,0,.9-.2c.2-.2.3-.4.3-.7s-.1-.6-.3-.7c-.2-.2-.5-.2-.9-.2s-.6,0-.8.3h0Z"></path>
      <path class="st5" d="M257.9,296c.5.5.7,1.2.7,2.2v5.1h-3v-4.8c0-.3,0-.6-.3-.8-.2-.2-.4-.3-.7-.3s-.7.1-.9.4c-.2.2-.3.5-.3.9v4.7h-3v-7.9h2.5l.2,1.2c.3-.4.7-.8,1.2-1s1-.4,1.6-.4c.9,0,1.6.3,2.1.8h-.1Z"></path>
      <path class="st5" d="M265,306.6v-14.1h1.9v14.1h-1.9Z"></path>
      <path class="st5" d="M281.1,296.3c.6.7.9,1.7.9,3.1s-.3,2.4-.9,3.1-1.4,1-2.5,1-1.7-.3-2.2-.9v3.7h-3v-10.9h2.4l.3,1.1c.6-.9,1.4-1.3,2.5-1.3s1.9.4,2.5,1.1h0ZM276.7,297.9c-.2.3-.3.7-.3,1.2v.5c0,.5.1.9.3,1.2s.6.5,1,.5c.9,0,1.3-.5,1.3-1.6v-.8c0-1-.4-1.5-1.3-1.5s-.8.2-1,.5h0Z"></path>
      <path class="st5" d="M288.5,295.3h.3v2.5h-1c-.6,0-1.1.2-1.3.5-.3.3-.4.8-.4,1.4v3.5h-3v-7.9h2.5l.2,1.2c.2-.5.5-.8.9-1s.8-.4,1.3-.4h.6v.2Z"></path>
      <path class="st5" d="M289.6,294.5v-2h3v2h-3ZM289.6,303.4v-7.9h3v7.9h-3Z"></path>
      <path class="st5" d="M301.8,296c.5.5.7,1.2.7,2.2v5.1h-3v-4.8c0-.3,0-.6-.3-.8-.2-.2-.4-.3-.7-.3s-.7.1-.9.4c-.2.2-.3.5-.3.9v4.7h-3v-7.9h2.5l.2,1.2c.3-.4.7-.8,1.2-1s1-.4,1.6-.4c.9,0,1.6.3,2.1.8h-.1Z"></path>
      <path class="st5" d="M309.2,295.4v2h-1.7v3c0,.4,0,.6.2.8.1.2.3.2.7.2h.8v1.8c-.2,0-.6.1-.9.2h-1c-.9,0-1.6-.2-2-.5-.5-.3-.7-.9-.7-1.6v-4h-1.1v-2h1.2l.6-2.4h2.2v2.4h1.7,0Z"></path>
      <path class="st5" d="M310.4,294.5v-2h3v2h-3ZM310.4,303.4v-7.9h3v7.9h-3Z"></path>
      <path class="st5" d="M322.6,296c.5.5.7,1.2.7,2.2v5.1h-3v-4.8c0-.3,0-.6-.3-.8-.2-.2-.4-.3-.7-.3s-.7.1-.9.4c-.2.2-.3.5-.3.9v4.7h-3v-7.9h2.5l.2,1.2c.3-.4.7-.8,1.2-1s1-.4,1.6-.4c.9,0,1.6.3,2.1.8h-.1Z"></path>
      <path class="st5" d="M333.3,295.4c-.3.3-.8.6-1.4.7.3.2.5.5.7.8s.2.6.2.9c0,.8-.3,1.5-1,1.9-.6.4-1.4.6-2.4.6h-1.1c-.6,0-.9.1-.9.4s0,.3.2.3.4.1.7.1h2.7c.9,0,1.5.2,2,.7s.7,1.1.7,1.9-.2,1.1-.5,1.5-.7.7-1.2.9c-.5.2-1.1.3-1.7.3h-4.4c-.4,0-.7,0-1-.3-.3-.2-.5-.4-.7-.7-.2-.3-.3-.6-.3-1s.1-.7.4-1.1.5-.6.9-.7l-.6-.6c-.1-.2-.2-.5-.2-.8s.1-.7.4-1.1c.3-.3.7-.5,1.1-.6-.4-.3-.7-.5-.9-.9-.2-.3-.3-.7-.3-1,0-.9.4-1.6,1.1-2s1.7-.6,3-.6h1.3c.5-.3.8-.6,1-.9s.2-.4.2-.5h2.5c0,.6-.2,1.1-.5,1.4v.4ZM327,303.6c-.1.1-.2.3-.2.5s0,.4.2.6.3.2.6.2h2.3c.2,0,.4,0,.6-.2.2-.1.2-.3.2-.5s0-.4-.2-.5-.3-.2-.6-.2h-2.3c-.2,0-.4,0-.6.2h0ZM327.9,297.1c-.2.2-.3.4-.3.7s0,.6.3.7c.2.2.5.2.8.2s.6,0,.9-.2c.2-.2.3-.4.3-.7s-.1-.6-.3-.7c-.2-.2-.5-.2-.9-.2s-.6,0-.8.3h0Z"></path>
      <path class="st5" d="M339.5,306.6v-14.1h1.9v14.1h-1.9Z"></path>
      <path class="st5" d="M353.6,303.4l-.3-1.1c-.6.9-1.4,1.3-2.5,1.3s-1.9-.4-2.5-1.1-.9-1.7-.9-3.1.3-2.4.9-3.1,1.4-1,2.5-1,1.7.3,2.2.9v-3.7h3v10.9h-2.4ZM350.5,299v.8c0,1,.4,1.5,1.3,1.5s.8-.2,1-.5.3-.7.3-1.2v-.5c0-.5-.1-.9-.3-1.2-.2-.3-.6-.5-1-.5-.9,0-1.3.5-1.3,1.6h0Z"></path>
      <path class="st5" d="M357.7,294.5v-2h3v2h-3ZM357.7,303.4v-7.9h3v7.9h-3Z"></path>
      <path class="st5" d="M370.8,295.4c-.3.3-.8.6-1.4.7.3.2.5.5.7.8s.2.6.2.9c0,.8-.3,1.5-1,1.9-.6.4-1.4.6-2.4.6h-1.1c-.6,0-.9.1-.9.4s0,.3.2.3.4.1.7.1h2.7c.9,0,1.5.2,2,.7s.7,1.1.7,1.9-.2,1.1-.5,1.5-.7.7-1.2.9c-.5.2-1.1.3-1.7.3h-4.4c-.4,0-.7,0-1-.3-.3-.2-.5-.4-.7-.7-.2-.3-.3-.6-.3-1s.1-.7.4-1.1.5-.6.9-.7l-.6-.6c-.1-.2-.2-.5-.2-.8s.1-.7.4-1.1c.3-.3.7-.5,1.1-.6-.4-.3-.7-.5-.9-.9-.2-.3-.3-.7-.3-1,0-.9.4-1.6,1.1-2s1.7-.6,3-.6h1.3c.5-.3.8-.6,1-.9s.2-.4.2-.5h2.5c0,.6-.2,1.1-.5,1.4v.4ZM364.5,303.6c-.1.1-.2.3-.2.5s0,.4.2.6.3.2.6.2h2.3c.2,0,.4,0,.6-.2.2-.1.2-.3.2-.5s0-.4-.2-.5-.3-.2-.6-.2h-2.3c-.2,0-.4,0-.6.2h0ZM365.4,297.1c-.2.2-.3.4-.3.7s0,.6.3.7c.2.2.5.2.8.2s.6,0,.9-.2c.2-.2.3-.4.3-.7s-.1-.6-.3-.7c-.2-.2-.5-.2-.9-.2s-.6,0-.8.3h0Z"></path>
      <path class="st5" d="M372.1,294.5v-2h3v2h-3ZM372.1,303.4v-7.9h3v7.9h-3Z"></path>
      <path class="st5" d="M382,295.4v2h-1.7v3c0,.4,0,.6.2.8.1.2.3.2.7.2h.8v1.8c-.2,0-.6.1-.9.2h-1c-.9,0-1.6-.2-2-.5-.5-.3-.7-.9-.7-1.6v-4h-1.1v-2h1.2l.6-2.4h2.2v2.4h1.7,0Z"></path>
      <path class="st5" d="M390,295.9c.8.4,1.1,1.1,1.1,2v3.1c0,.2,0,.3.1.4s.2.2.4.2h.5v1.7h-.2c-.1,0-.3,0-.5.1h-.8c-.6,0-1.1,0-1.4-.3-.4-.2-.6-.4-.8-.7-.4.3-.8.5-1.3.7s-1,.3-1.7.3c-1.9,0-2.8-.7-2.8-2.2s.2-1.4.6-1.8,1-.7,1.8-.8c.8-.2,1.8-.2,3.1-.2v-.4c0-.3-.1-.5-.3-.7-.2-.2-.5-.2-.8-.2s-.6,0-.8.2c-.2.1-.3.3-.3.5h-3v-.2c0-.8.4-1.3,1.1-1.8.7-.4,1.7-.7,3.1-.7s2.2.2,3,.6v.2ZM386.3,300.2c-.4.2-.6.4-.6.7,0,.5.3.8,1,.8s.7-.1,1-.3c.3-.2.4-.5.4-.8v-.7c-.9,0-1.5,0-1.9.3h.1Z"></path>
      <path class="st5" d="M393,303.4v-10.9h3v10.9h-3Z"></path>
      <path class="st5" d="M408.8,295.9c.7.4,1.1,1.1,1.1,1.9h-2.8c0-.3-.1-.5-.4-.6-.2-.1-.4-.2-.7-.2-.7,0-1.1.2-1.1.5s.1.3.4.4.7.2,1.2.3c.7.1,1.3.2,1.8.4.5.1.9.4,1.2.7.4.3.5.8.5,1.5,0,1-.4,1.7-1.1,2.2-.8.4-1.7.6-3,.6s-1.4,0-2-.3c-.6-.2-1.1-.5-1.5-.9s-.6-.9-.6-1.6h2.8c0,.4.2.6.4.8.3.1.6.2.9.2.8,0,1.2-.2,1.2-.6s-.1-.3-.4-.4c-.3,0-.7-.2-1.3-.3-.7-.1-1.3-.3-1.8-.4s-.9-.4-1.2-.7-.5-.8-.5-1.4c0-1,.4-1.7,1.1-2.1s1.7-.6,2.9-.6,2,.2,2.7.6h.2Z"></path>
      <path class="st5" d="M411.3,294.5v-2h3v2h-3ZM411.3,303.4v-7.9h3v7.9h-3Z"></path>
      <path class="st5" d="M424.4,295.4c-.3.3-.8.6-1.4.7.3.2.5.5.7.8s.2.6.2.9c0,.8-.3,1.5-1,1.9-.6.4-1.4.6-2.4.6h-1.1c-.6,0-.9.1-.9.4s0,.3.2.3.4.1.7.1h2.7c.9,0,1.5.2,2,.7s.7,1.1.7,1.9-.2,1.1-.5,1.5-.7.7-1.2.9c-.5.2-1.1.3-1.7.3h-4.4c-.4,0-.7,0-1-.3-.3-.2-.5-.4-.7-.7-.2-.3-.3-.6-.3-1s.1-.7.4-1.1.5-.6.9-.7l-.6-.6c-.1-.2-.2-.5-.2-.8s.1-.7.4-1.1c.3-.3.7-.5,1.1-.6-.4-.3-.7-.5-.9-.9-.2-.3-.3-.7-.3-1,0-.9.4-1.6,1.1-2s1.7-.6,3-.6h1.3c.5-.3.8-.6,1-.9s.2-.4.2-.5h2.5c0,.6-.2,1.1-.5,1.4v.4ZM418.1,303.6c-.1.1-.2.3-.2.5s0,.4.2.6.3.2.6.2h2.3c.2,0,.4,0,.6-.2.2-.1.2-.3.2-.5s0-.4-.2-.5-.3-.2-.6-.2h-2.3c-.2,0-.4,0-.6.2h0ZM419,297.1c-.2.2-.3.4-.3.7s0,.6.3.7c.2.2.5.2.8.2s.6,0,.9-.2c.2-.2.3-.4.3-.7s-.1-.6-.3-.7c-.2-.2-.5-.2-.9-.2s-.6,0-.8.3h0Z"></path>
      <path class="st5" d="M433.2,296c.5.5.7,1.2.7,2.2v5.1h-3v-4.8c0-.3,0-.6-.3-.8-.2-.2-.4-.3-.7-.3s-.7.1-.9.4c-.2.2-.3.5-.3.9v4.7h-3v-7.9h2.5l.2,1.2c.3-.4.7-.8,1.2-1s1-.4,1.6-.4c.9,0,1.6.3,2.1.8h-.1Z"></path>
      <path class="st5" d="M442.3,295.9c.8.4,1.1,1.1,1.1,2v3.1c0,.2,0,.3.1.4s.2.2.4.2h.5v1.7h-.2c-.1,0-.3,0-.5.1h-.8c-.6,0-1.1,0-1.4-.3-.4-.2-.6-.4-.8-.7-.4.3-.8.5-1.3.7s-1,.3-1.7.3c-1.9,0-2.8-.7-2.8-2.2s.2-1.4.6-1.8,1-.7,1.8-.8c.8-.2,1.8-.2,3.1-.2v-.4c0-.3-.1-.5-.3-.7-.2-.2-.5-.2-.8-.2s-.6,0-.8.2c-.2.1-.3.3-.3.5h-3v-.2c0-.8.4-1.3,1.1-1.8.7-.4,1.7-.7,3.1-.7s2.2.2,3,.6v.2ZM438.5,300.2c-.4.2-.6.4-.6.7,0,.5.3.8,1,.8s.7-.1,1-.3c.3-.2.4-.5.4-.8v-.7c-.9,0-1.5,0-1.9.3h.1Z"></path>
      <path class="st5" d="M453.8,295.4c-.3.3-.8.6-1.4.7.3.2.5.5.7.8s.2.6.2.9c0,.8-.3,1.5-1,1.9-.6.4-1.4.6-2.4.6h-1.1c-.6,0-.9.1-.9.4s0,.3.2.3.4.1.7.1h2.7c.9,0,1.5.2,2,.7s.7,1.1.7,1.9-.2,1.1-.5,1.5-.7.7-1.2.9c-.5.2-1.1.3-1.7.3h-4.4c-.4,0-.7,0-1-.3-.3-.2-.5-.4-.7-.7-.2-.3-.3-.6-.3-1s.1-.7.4-1.1.5-.6.9-.7l-.6-.6c-.1-.2-.2-.5-.2-.8s.1-.7.4-1.1c.3-.3.7-.5,1.1-.6-.4-.3-.7-.5-.9-.9-.2-.3-.3-.7-.3-1,0-.9.4-1.6,1.1-2s1.7-.6,3-.6h1.3c.5-.3.8-.6,1-.9s.2-.4.2-.5h2.5c0,.6-.2,1.1-.5,1.4v.4ZM447.6,303.6c-.1.1-.2.3-.2.5s0,.4.2.6.3.2.6.2h2.3c.2,0,.4,0,.6-.2.2-.1.2-.3.2-.5s0-.4-.2-.5-.3-.2-.6-.2h-2.3c-.2,0-.4,0-.6.2h0ZM448.5,297.1c-.2.2-.3.4-.3.7s0,.6.3.7c.2.2.5.2.8.2s.6,0,.9-.2c.2-.2.3-.4.3-.7s-.1-.6-.3-.7c-.2-.2-.5-.2-.9-.2s-.6,0-.8.3h0Z"></path>
      <path class="st5" d="M462.5,296.3c.8.7,1.2,1.7,1.2,3.1v.5h-6c0,.6.1,1,.4,1.3s.7.4,1.2.4.9-.1,1.1-.3c.2-.2.4-.5.4-.8h2.9c0,1-.4,1.7-1.1,2.3-.7.5-1.8.8-3.2.8s-2.6-.3-3.4-1-1.2-1.7-1.2-3.1.4-2.4,1.2-3.1c.8-.7,1.9-1.1,3.3-1.1s2.6.3,3.3,1h0ZM457.7,298.5h2.9c0-.4-.1-.7-.4-1s-.6-.4-1-.4c-.9,0-1.5.4-1.6,1.3h.1Z"></path>
    </g>
    <g>
      <path d="M146.6,206.6c-30.4,0-45.5-16.7-45.5-50v-25.4c0-33.6,14.6-50.4,43.7-50.4s43.7,13.4,43.7,40.2h86.1c0-33.9-12-59.1-35.9-75.7-24-16.5-55.3-24.8-94-24.8s-73.8,10.4-97.3,31.2c-23.2,20.6-35,51.2-35.2,91h0v.9c0,40.5,11.8,71.1,35.3,91.9s55.9,31.2,97.3,31.2,70-8.3,94-25c23.9-16.7,35.9-42.1,35.9-76.3h-82.6c0,27.4-15.2,41.1-45.5,41.1h0Z"></path>
      <path class="st7" d="M454.2,51.9c-23.7-21-56.2-31.5-97.5-31.5s-73.8,10.4-97.3,31.2c-23.5,20.8-35.3,51.5-35.3,91.9s11.8,71.1,35.3,91.9,55.9,31.2,97.3,31.2,73.9-10.5,97.5-31.5c23.7-21,35.5-51.6,35.5-91.7s-11.8-70.7-35.5-91.7v.2ZM411.9,154.9c-3.1,15.3-10.1,26.6-22,34.8l14,22.7-60.5-12.4c-31.4-6.4-51.6-37.1-45.2-68.5s37.1-51.6,68.5-45.2c31.4,6.4,51.6,37.1,45.2,68.5h0Z"></path>
      <g class="st6">
        <path class="st5" d="M146.6,206.6c-30.4,0-45.5-16.7-45.5-50v-25.4c0-33.6,14.6-50.4,43.7-50.4s43.7,13.4,43.7,40.2h86.1c0-33.9-12-59.1-35.9-75.7-24-16.5-55.3-24.8-94-24.8s-73.8,10.4-97.3,31.2c-23.2,20.6-35,51.2-35.2,91h0v.9c0,40.5,11.8,71.1,35.3,91.9s55.9,31.2,97.3,31.2,70-8.3,94-25c23.9-16.7,35.9-42.1,35.9-76.3h-82.6c0,27.4-15.2,41.1-45.5,41.1h0Z"></path>
      </g>
    </g>
  </g>
  <g class="st2">
    <text class="st4" transform="translate(-735.5 -146.1)">
      <tspan x="0" y="0">ozuna</tspan>
    </text>
  </g>
  <g class="st2">
    <text class="st4" transform="translate(-861.3 -146.1)">
      <tspan x="0" y="0">c</tspan>
    </text>
  </g>
</svg>
